<svg width="1440" height="1592" viewBox="0 0 1440 1592" fill="none" xmlns="http://www.w3.org/2000/svg">
<path fill-rule="evenodd" clip-rule="evenodd" d="M772.827 1372.56C614.544 1419.75 543.214 1391.33 393.637 1340.86C250.098 1292.42 73.0338 1506.41 16.9849 1385.86C68.6071 1289.84 86.1051 1134.56 74.8137 1002.26C64.8413 885.412 60.3138 780.801 57.5787 663.311C54.2049 518.383 -6.87337 598.306 -6.87336 311.786C120.022 207.57 388.175 165.92 560.449 167.904C710.704 169.634 834.864 241.215 978.221 272.503C1132.7 306.219 1330.1 266.773 1448.47 353.286C1478.41 550.803 1395.05 630.489 1398.21 767.819C1401.21 898.263 1476.9 986.808 1398.21 1103.84C1327.61 1208.84 1272.09 1282.69 1175.09 1372.56C1061.87 1477.45 930.247 1325.62 772.827 1372.56Z" fill="#54CCA1"/>
<rect x="-12.9648" y="359.79" width="1463.97" height="1233.09" fill="#54CCA1"/>
</svg>
